<svg width="266" height="206" viewBox="0 0 266 206" fill="none" xmlns="http://www.w3.org/2000/svg">
<path d="M56.5503 23.8495V33.8262H35.1581V91H25.1814V33.8262H3.83717V23.8495H56.5503ZM59.2475 91V43.0354H69.2242V48.1196C70.8869 46.1371 72.9334 44.5703 75.3636 43.4191C77.7938 42.268 80.4159 41.6924 83.2298 41.6924C85.0205 41.6924 86.7952 41.9322 88.5539 42.4119L84.5728 52.4844C83.3258 52.0048 82.0787 51.765 80.8316 51.765C78.7212 51.765 76.7866 52.2926 75.0279 53.3478C73.2692 54.371 71.8622 55.762 70.807 57.5207C69.7518 59.2794 69.2242 61.23 69.2242 63.3724V91H59.2475ZM129.165 43.0354H139.142V91H129.117L128.733 84.0451C127.326 86.5073 125.424 88.4899 123.025 89.9927C120.627 91.4956 117.797 92.2471 114.536 92.2471C111.018 92.2471 107.709 91.5916 104.607 90.2805C101.505 88.9375 98.7714 87.0829 96.4051 84.7166C94.0708 82.3504 92.2482 79.6324 90.9372 76.5627C89.6261 73.4609 88.9706 70.1354 88.9706 66.586C88.9706 63.1645 89.6101 59.9509 90.8892 56.9451C92.1682 53.9074 93.9429 51.2533 96.2133 48.983C98.4836 46.7127 101.106 44.938 104.079 43.6589C107.085 42.3479 110.299 41.6924 113.72 41.6924C117.206 41.6924 120.276 42.4918 122.93 44.0906C125.616 45.6575 127.838 47.672 129.597 50.1342L129.165 43.0354ZM114.296 82.6062C117.11 82.6062 119.572 81.9187 121.682 80.5437C123.793 79.1368 125.424 77.2501 126.575 74.8839C127.758 72.5176 128.35 69.8956 128.35 67.0177C128.35 64.1078 127.758 61.4698 126.575 59.1035C125.392 56.7373 123.745 54.8667 121.635 53.4917C119.556 52.0847 117.11 51.3812 114.296 51.3812C111.514 51.3812 108.972 52.0847 106.67 53.4917C104.367 54.8986 102.545 56.7852 101.202 59.1515C99.8586 61.5178 99.1871 64.1398 99.1871 67.0177C99.1871 69.9275 99.8746 72.5656 101.25 74.9319C102.657 77.2661 104.495 79.1368 106.765 80.5437C109.068 81.9187 111.578 82.6062 114.296 82.6062ZM174.369 91H161.562L144.055 42.9395H154.703L167.941 79.4885L181.228 42.9395H191.828L174.369 91ZM218.438 92.2471C214.025 92.2471 209.996 91.1119 206.35 88.8416C202.737 86.5713 199.843 83.5335 197.669 79.7283C195.526 75.8911 194.455 71.6543 194.455 67.0177C194.455 63.5003 195.079 60.2227 196.326 57.1849C197.573 54.1152 199.284 51.4292 201.458 49.1269C203.664 46.7926 206.223 44.97 209.132 43.6589C212.042 42.3479 215.144 41.6924 218.438 41.6924C222.115 41.6924 225.488 42.4598 228.558 43.9947C231.628 45.4976 234.25 47.592 236.424 50.278C238.599 52.9321 240.198 56.0018 241.221 59.4873C242.244 62.9407 242.548 66.618 242.132 70.5191H205.151C205.567 72.7255 206.366 74.724 207.55 76.5147C208.765 78.2734 210.3 79.6644 212.154 80.6876C214.041 81.7109 216.135 82.2385 218.438 82.2704C220.868 82.2704 223.074 81.6629 225.057 80.4478C227.071 79.2327 228.718 77.5539 229.997 75.4115L240.118 77.7618C238.199 82.0146 235.305 85.5001 231.436 88.2181C227.567 90.9041 223.234 92.2471 218.438 92.2471ZM204.816 62.8927H232.06C231.74 60.5904 230.924 58.512 229.613 56.6573C228.334 54.7707 226.719 53.2838 224.769 52.1966C222.85 51.0775 220.74 50.5179 218.438 50.5179C216.167 50.5179 214.057 51.0615 212.106 52.1487C210.188 53.2359 208.589 54.7228 207.31 56.6094C206.063 58.464 205.231 60.5585 204.816 62.8927ZM249.42 91V19.0531H259.396V91H249.42Z" fill="#1E1E1E"/>
<path d="M42.8368 183.247C38.2962 183.247 34.0273 182.352 30.0303 180.561C26.0332 178.738 22.5158 176.244 19.4781 173.079C16.4723 169.881 14.106 166.172 12.3793 161.951C10.6845 157.73 9.83717 153.221 9.83717 148.425C9.83717 143.628 10.6845 139.12 12.3793 134.899C14.106 130.678 16.4723 126.985 19.4781 123.819C22.5158 120.621 26.0332 118.127 30.0303 116.336C34.0273 114.514 38.2962 113.602 42.8368 113.602C48.2728 113.602 53.2771 114.866 57.8497 117.392C62.4224 119.918 66.2116 123.275 69.2174 127.464L60.3439 132.213C58.2654 129.591 55.6913 127.496 52.6216 125.929C49.5519 124.363 46.2903 123.579 42.8368 123.579C39.6392 123.579 36.6494 124.235 33.8674 125.546C31.0855 126.857 28.6393 128.647 26.5289 130.918C24.4184 133.188 22.7716 135.826 21.5885 138.832C20.4054 141.838 19.8138 145.035 19.8138 148.425C19.8138 151.846 20.4054 155.06 21.5885 158.066C22.7716 161.039 24.4184 163.678 26.5289 165.98C28.6713 168.25 31.1335 170.041 33.9154 171.352C36.6973 172.631 39.6712 173.27 42.8368 173.27C46.3542 173.27 49.6318 172.487 52.6696 170.92C55.7393 169.321 58.2974 167.211 60.3439 164.589L69.2174 169.433C66.2116 173.622 62.4224 176.98 57.8497 179.506C53.2771 182 48.2728 183.247 42.8368 183.247ZM113.337 134.035H123.314V182H113.289L112.906 175.045C111.499 177.507 109.596 179.49 107.198 180.993C104.8 182.496 101.97 183.247 98.7081 183.247C95.1907 183.247 91.8811 182.592 88.7794 181.281C85.6777 179.938 82.9437 178.083 80.5775 175.717C78.2432 173.35 76.4205 170.632 75.1095 167.563C73.7985 164.461 73.143 161.135 73.143 157.586C73.143 154.165 73.7825 150.951 75.0615 147.945C76.3406 144.907 78.1153 142.253 80.3856 139.983C82.6559 137.713 85.278 135.938 88.2518 134.659C91.2576 133.348 94.4712 132.692 97.8927 132.692C101.378 132.692 104.448 133.492 107.102 135.091C109.788 136.657 112.01 138.672 113.769 141.134L113.337 134.035ZM98.4683 173.606C101.282 173.606 103.744 172.919 105.855 171.544C107.965 170.137 109.596 168.25 110.747 165.884C111.93 163.518 112.522 160.896 112.522 158.018C112.522 155.108 111.93 152.47 110.747 150.104C109.564 147.737 107.917 145.867 105.807 144.492C103.728 143.085 101.282 142.381 98.4683 142.381C95.6863 142.381 93.1442 143.085 90.8419 144.492C88.5396 145.899 86.7169 147.785 85.3739 150.151C84.0309 152.518 83.3594 155.14 83.3594 158.018C83.3594 160.928 84.0469 163.566 85.4219 165.932C86.8289 168.266 88.6675 170.137 90.9378 171.544C93.2401 172.919 95.7503 173.606 98.4683 173.606ZM132.885 182V134.035H142.862V139.12C144.525 137.137 146.571 135.57 149.001 134.419C151.431 133.268 154.053 132.692 156.867 132.692C158.658 132.692 160.433 132.932 162.191 133.412L158.21 143.484C156.963 143.005 155.716 142.765 154.469 142.765C152.359 142.765 150.424 143.293 148.665 144.348C146.907 145.371 145.5 146.762 144.445 148.521C143.389 150.279 142.862 152.23 142.862 154.372V182H132.885ZM202.851 110.053H212.827V182H202.851V174.949C201.284 177.443 199.237 179.458 196.711 180.993C194.185 182.496 191.227 183.247 187.838 183.247C184.352 183.247 181.091 182.592 178.053 181.281C175.015 179.969 172.329 178.163 169.995 175.861C167.692 173.526 165.886 170.84 164.575 167.802C163.264 164.765 162.608 161.503 162.608 158.018C162.608 154.532 163.264 151.271 164.575 148.233C165.886 145.163 167.692 142.477 169.995 140.175C172.329 137.841 175.015 136.018 178.053 134.707C181.091 133.396 184.352 132.74 187.838 132.74C191.227 132.74 194.185 133.508 196.711 135.043C199.237 136.546 201.284 138.528 202.851 140.99V110.053ZM187.934 173.606C190.747 173.606 193.21 172.919 195.32 171.544C197.43 170.137 199.061 168.25 200.212 165.884C201.396 163.518 201.987 160.896 201.987 158.018C201.987 155.108 201.396 152.47 200.212 150.104C199.029 147.737 197.383 145.867 195.272 144.492C193.194 143.085 190.747 142.381 187.934 142.381C185.152 142.381 182.609 143.085 180.307 144.492C178.037 145.899 176.214 147.785 174.839 150.151C173.496 152.518 172.825 155.14 172.825 158.018C172.825 160.928 173.512 163.566 174.887 165.932C176.294 168.266 178.133 170.137 180.403 171.544C182.705 172.919 185.216 173.606 187.934 173.606ZM238.707 182.911C236.181 182.751 233.719 182.24 231.32 181.376C228.922 180.513 226.812 179.346 224.989 177.875C223.198 176.372 221.855 174.613 220.96 172.599L229.45 168.954C229.866 169.817 230.585 170.664 231.608 171.496C232.663 172.327 233.895 173.015 235.302 173.558C236.708 174.07 238.179 174.326 239.714 174.326C241.217 174.326 242.608 174.118 243.887 173.702C245.198 173.254 246.269 172.583 247.101 171.688C247.932 170.792 248.348 169.721 248.348 168.474C248.348 167.067 247.868 165.98 246.909 165.212C245.982 164.413 244.815 163.805 243.408 163.39C242.001 162.974 240.594 162.574 239.187 162.191C236.053 161.487 233.175 160.528 230.553 159.313C227.963 158.066 225.9 156.483 224.366 154.564C222.831 152.614 222.063 150.231 222.063 147.418C222.063 144.348 222.895 141.694 224.557 139.455C226.22 137.185 228.395 135.442 231.081 134.227C233.799 133.012 236.693 132.405 239.762 132.405C243.599 132.405 247.117 133.22 250.314 134.851C253.512 136.482 255.958 138.72 257.653 141.566L249.739 146.266C249.259 145.307 248.54 144.444 247.58 143.676C246.621 142.909 245.534 142.301 244.319 141.854C243.104 141.374 241.841 141.102 240.53 141.038C238.899 140.974 237.38 141.166 235.973 141.614C234.598 142.029 233.495 142.701 232.663 143.628C231.832 144.556 231.416 145.739 231.416 147.178C231.416 148.585 231.912 149.64 232.903 150.343C233.895 151.015 235.142 151.558 236.645 151.974C238.179 152.39 239.746 152.854 241.345 153.365C244.191 154.26 246.861 155.364 249.355 156.675C251.849 157.954 253.864 159.537 255.399 161.423C256.934 163.31 257.669 165.612 257.605 168.33C257.605 171.336 256.694 173.974 254.871 176.244C253.08 178.515 250.746 180.241 247.868 181.424C244.99 182.608 241.937 183.103 238.707 182.911Z" fill="#1E1E1E"/>
</svg>
